<?xml version="1.0" encoding="utf-8"?>
<!-- Generator: Adobe Illustrator 16.0.0, SVG Export Plug-In . SVG Version: 6.00 Build 0)  -->
<!DOCTYPE svg PUBLIC "-//W3C//DTD SVG 1.1//EN" "http://www.w3.org/Graphics/SVG/1.1/DTD/svg11.dtd">
<svg version="1.1" id="Layer_1" xmlns="http://www.w3.org/2000/svg" xmlns:xlink="http://www.w3.org/1999/xlink" x="0px" y="0px"
	 width="1200px" height="175px" viewBox="0 0 1200 175" enable-background="new 0 0 1200 175" xml:space="preserve">
<rect fill="#98B5DF" width="1200" height="175"/>
<g id="layer1" transform="translate(-615.12448,-570.9786)">
	
		<path id="path16_2_" fill="#6DC6D9" stroke="#808081" stroke-width="0.4996" stroke-linecap="round" stroke-dasharray="0.9992,1.9984" d="
		M1815.17,690.962"/>
	
		<path id="path16_1_" fill="#6DC6D9" stroke="#808081" stroke-width="0.4996" stroke-linecap="round" stroke-dasharray="0.9992,1.9984" d="
		M613.124,690.962"/>
	
		<path id="path18_2_" fill="#6DC6D9" stroke="#808081" stroke-width="0.4996" stroke-linecap="round" stroke-dasharray="0.9992,1.9984" d="
		M1815.17,626.26"/>
	
		<path id="path18_1_" fill="#6DC6D9" stroke="#808081" stroke-width="0.4996" stroke-linecap="round" stroke-dasharray="0.9992,1.9984" d="
		M613.124,626.26"/>
	<path id="path22_1_" fill="#FFFFFF" d="M1190.996,648.203l-1.123,4.757l-0.749-4.757c-0.721-4.711-0.729-4.706-1.745,2.474
		l-0.998,7.262l-0.375-7.135c-0.215-4.034-1.061-7.135-1.996-7.135c-0.916,0-2.022,0.454-2.369,1.015
		c-0.53,0.852-3.668-7.828-5.613-15.539c-0.25,0.698-0.612,4.461-0.748,9.64c-0.183,6.872-1.017,11.669-1.996,11.669
		c-0.916,0-1.963,0.551-2.37,1.237c-0.409,0.687-1.048-0.869-1.372-3.488l-0.624-4.788l-1.123,3.646
		c-0.981,3.148-1.255,2.623-1.87-3.869l-0.624-7.483l-0.998,8.625c-0.823,6.982-1.166,7.728-1.622,3.869
		c-0.382-3.202-1.037-4.409-1.996-3.646c-0.904,0.717-1.566-1.107-1.871-4.979l-0.5-6.121l-1.247,5.898
		c-0.705,3.243-1.552,6.093-1.871,6.342c-0.318,0.25-1.056-2.827-1.621-6.818c-1.028-7.247-1.1-7.242-1.871,4.535l-0.748,11.796
		l-0.998-10.877l-0.998-10.877l-0.624,8.372c-0.336,4.614-1.123,9.019-1.87,9.767l-1.372,1.364l-0.499-1.364l-0.375-1.363
		l-1.372,1.363l-1.375,1.364l-0.499-1.364c-0.343-0.936-0.917-0.574-1.747,1.142c-1.196,2.487-1.204,2.458-1.497-1.046
		c-0.3-3.634-3.009-4.801-4.24-1.808c-0.382,0.936-0.999-0.133-1.373-2.378c-0.581-3.52-0.856-3.086-1.746,3.171l-0.998,7.262
		l-0.624-9.513c-0.357-5.622-1.215-8.896-1.995-7.959c-0.928,1.123-1.438,0.074-1.871-3.615l-0.624-5.2l-0.998,7.008l-1.119,7.04
		l-0.374-6.913c-0.218-3.973-1.029-6.913-1.995-6.913c-0.928,0-1.949,0.972-2.245,2.156c-0.542,2.146-0.558,2.123-3.493-1.49
		l-2.993-3.615l-0.25,3.393c-0.253,2.441-0.845,3.098-1.871,2.283c-0.833-0.661-1.52,2.416-1.62,7.42
		c-0.099,4.718-0.78,8.428-1.497,8.245c-0.722-0.183-1.789-3.509-2.37-7.42l-0.997-7.135l-0.624,8.625
		c-0.464,6.42-0.889,7.82-1.747,5.455c-1.01-2.768-1.291-2.921-1.746-1.142c-0.495,1.916-0.596,1.943-1.871,0.666
		c-1.173-1.168-1.375-1-1.746,1.142c-0.343,1.97-0.959,1.317-2.873-3.139c-1.328-3.104-2.743-5.856-3.114-6.12
		c-0.017-0.008-0.113,0.004-0.128,0c-0.444,0.25-1.286,2.103-1.995,4.503c-2.007,6.795-3.855,4.484-4.611-5.898l-0.499-8.149
		l-1.123,8.372l-0.998,8.403l-0.748-9.767c-0.609-7.787-0.877-8.822-1.622-5.201c-0.332,1.606-0.663,2.559-0.873,2.759
		c-0.297-0.208-0.62-2.077-1.123-6.152c-0.833-6.72-1.126-5.423-1.746,8.593c-0.464,10.424-0.989,14.716-1.621,11.575
		c-0.646-3.205-1.458-4.413-2.119-3.393c-0.921,1.415-1.057,1.304-1.622-0.92c-0.491-1.924-0.908-1.392-1.745,2.283l-1.123,4.757
		l-0.499-6.12c-0.304-3.366-1.169-8.776-1.871-12.019l-1.247-5.898l-0.624,8.593l-0.5,8.625l-1.621-6.564
		c-0.842-3.616-2.175-8.508-2.993-10.877c-1.345-3.881-1.544-3.274-2.121,6.12l-0.624,10.433l-0.998-6.818l-1.121-6.786
		l-0.749,10.655l-0.748,10.655l-0.873-7.04l-0.998-7.04l-1.496,4.313c-0.795,2.37-1.931,5.543-2.619,7.04l-1.248,2.727l-1.371-1.839
		c-0.709-0.998-1.236-2.65-1.248-3.71s-0.888-1.935-1.87-1.935c-1.057,0-1.897,1.968-2.12,4.852
		c-0.343,4.452-0.433,4.249-1.373-2.378c-0.869-6.13-1.239-6.65-1.87-3.393c-0.262,1.349-0.448,2.161-0.625,2.347
		c-0.249-0.225-0.61-1.741-1.122-4.852l-0.998-6.342l-0.624,7.262c-0.931,11.637-2.923,10.907-4.364-1.586
		c-2.456-21.295-3.945-22.796-4.74-4.756l-0.749,16.331l-0.998-10.655l-0.998-10.655l-0.874,9.291
		c-0.729,7.541-0.916,5.977-1.247-8.276l-0.499-17.568h-1.497l-1.247,8.276c-0.698,4.552-1.505,8.363-1.871,8.467
		c-0.366,0.104-0.826-2.066-0.999-4.788l-0.374-4.947l-1.247,5.454c-0.69,2.993-1.906,9.924-2.744,15.412
		c-0.838,5.487-1.898,9.374-2.37,8.625c-0.647-1.028-1.162-0.694-1.996,1.364c-1.099,2.713-1.072,2.711-1.372-1.046
		c-0.176-2.213-1.014-3.675-1.996-3.52c-0.92,0.145-1.984-0.486-2.37-1.427c-0.386-0.941-0.967,0.523-1.248,3.266
		c-0.615,6.001-2.927,4.577-3.741-2.283l-0.499-4.535l-1.123,3.646c-0.409,1.314-0.791,2.119-0.998,2.315
		c-0.261-0.136-0.452-1.537-0.748-4.598l-0.5-5.898l-1.496,4.788c-2.164,6.879-2.869,7.465-3.493,3.393l-0.499-3.646l-1.247,2.505
		c-1.061,2.201-1.236,1.95-1.747-2.251c-0.514-4.201-0.686-4.483-1.746-2.283c-1.025,2.125-1.375,2.271-1.871,0.92
		c-0.495-1.352-0.726-1.236-1.746,0.888l-1.122,2.505l-0.375-2.474c-0.444-3.738-2.163-2.474-3.741,2.759L965,650.676l-0.5-7.484
		c-0.514-8.03-2.841-7.448-3.741,0.92l-0.499,4.313l-1.123-3.869l-1.122-3.837l-0.624,5.422c-0.683,5.314-0.792,5.366-1.372,1.49
		c-0.327-2.182-1.34-3.964-2.245-3.964c-0.904,0-1.918-1.813-2.245-3.996c-0.055-0.367-0.191-0.578-0.25-0.634
		c-0.265,0.376-0.545,3.604-0.748,8.468c-0.271,6.484-1.279,12.185-2.12,12.685c-0.904,0.535-1.548-4.477-1.622-12.273
		c-0.07-7.263-0.635-13.871-1.247-14.65c-1.291-1.638-4.104-1.88-4.366-0.38c-0.171,0.979-0.253,0.961-1.621-0.127
		c-0.924-0.731-1.649,0.875-1.996,4.536l-0.499,5.676l-0.998-5.676l-0.998-5.645l-1.497,9.069
		c-0.842,4.987-2.14,10.267-2.869,11.765l-1.372,2.727l-0.499-2.251c-0.261-1.248-0.998-2.898-1.746-3.648
		c-1.178-1.173-1.458-1.01-1.871,1.142c-0.277,1.44-0.818,1.958-1.247,1.238c-0.5-0.835-1.82-1.238-3.991-1.238
		c-2.561,0-3.605-0.544-4.989-2.6c-1.27-1.882-1.832-2.205-1.996-1.142c-0.128,0.811-1.017,1.491-1.995,1.491
		c-1.1,0-1.746-2.289-1.746-5.898c0-3.424-0.834-5.957-1.871-6.12c-0.982-0.155-1.859-1.241-1.996-2.41l-0.25-2.125l-1.621,2.473
		c-0.904,1.372-2.26,6.489-2.994,11.353c-0.865,5.733-1.5,7.552-1.871,5.201c-0.315-1.996-1.193-6.692-1.875-10.433l-1.247-6.786
		l-0.62,6.12l-0.748,6.119l-0.998-7.04c-0.484-3.267-0.819-4.967-0.999-5.264c-0.132,0.147-0.234,1.201-0.378,3.044
		c-0.203,2.644-1.04,6.434-1.746,8.403c-1.06,2.978-1.403,3.317-2.37,1.998c-0.639-0.872-1.344,1.784-1.621,5.898
		c-0.534,7.982-0.932,8.007-2.744,0.317c-1.306-5.559-4.365-6.576-4.365-1.459c0,3.707-3.512,4.827-3.866,1.238
		c-0.113-1.185-0.799-2.771-1.497-3.521c-1.106-1.189-1.359-1.015-2.494,1.365c-2.183,4.589-2.366,4.649-2.619,0.856
		c-0.358-5.447-2.385-10.591-4.116-10.591c-0.834,0-1.688,1.684-1.87,3.742l-0.25,3.742l-1.123-3.869
		c-0.495-1.715-0.896-2.603-1.118-2.791c-0.167,0.059-0.315,0.525-0.499,1.427c-0.41,1.998-0.854,2.271-1.996,1.364
		c-1.029-0.814-1.618-0.1-1.996,2.505l-0.499,3.615l-1.123-4.979c-1.021-4.709-1.037-4.518-1.621,3.615l-0.623,8.625l-1.497-9.291
		c-0.791-5.113-2.089-11.041-2.869-13.16c-1.224-3.327-1.435-2.38-2.245,6.818l-0.998,10.655l-0.375-10.623
		c-0.218-5.841-0.994-10.498-1.621-10.338c-0.631,0.16-1.688,4.425-2.37,9.481c-1.221,9.012-1.178,9.075-1.747,3.298
		c-0.463-4.695-0.916-5.379-1.87-3.393c-0.963,1.993-1.267,1.317-1.747-3.393l-0.623-5.898l-1.373,6.342
		c-0.779,3.491-2.506,8.706-3.87,11.574l-2.495,5.201l-0.621-3.615l-0.499-3.646l-1.247,2.505c-0.87,1.8-1.33,2.123-1.747,1.142
		c-0.421-0.982-0.88-0.659-1.747,1.142c-0.966,2.004-1.359,1.311-1.874-3.425l-0.62-5.898l-1.122,4.788l-1.123,4.757l-0.624-6.12
		c-0.592-5.177-0.916-5.634-1.746-2.949c-0.647,2.083-1.248-0.27-1.871-6.818l-0.998-9.957l-0.624,11.321
		c-0.608,9.896-0.904,10.696-1.996,6.342c-0.69-2.744-1.539-7.44-1.87-10.433l-0.625-5.422l-0.998,7.483l-0.997,7.484l-0.5-7.484
		c-0.76-10.693-3.737-7.539-5.487,5.898c-0.764,5.86-1.594,9.521-1.871,8.149c-0.437-2.157-0.694-2.318-1.871-1.142
		c-1.022,1.019-1.408,0.467-1.747-2.251c-0.25-1.996-0.822-3.162-1.247-2.6c-0.425,0.561-1.583,1.015-2.495,1.015
		c-0.917,0-1.758,2.17-1.871,4.851c-0.253,5.819-2.763,4.351-3.243-1.903c-0.627-8.15-3.247-8.15-3.871,0
		c-0.265,3.504-0.472,5.289-0.62,5.613c-0.125-0.207-0.296-1.297-0.499-3.234c-0.522-4.899-0.846-5.328-3.992-5.328
		c-2.903,0-3.445,0.39-3.991,2.601c-0.577,2.335-0.698,2.228-0.998-0.92c-0.187-1.932-1.181-3.488-2.12-3.488
		c-0.944,0-1.922-1.813-2.245-3.996c-0.421-2.811-0.858-1.781-1.372,3.521c-0.444,4.579-0.877,6.114-1.247,3.963
		c-0.694-3.997-3.633-4.684-4.615-1.11c-0.581,2.101-0.584,1.995-0.873-0.856c-0.184-1.777-1.014-3.915-1.746-4.757
		c-1.143-1.304-1.505-1.027-2.374,1.871c-0.643,2.16-1.041,0.03-1.248-5.803c-0.199-5.764-0.997-9.165-2.116-9.165
		c-1.111,0-1.902,3.123-2.12,8.277c-0.339,7.894-0.476,8.018-1.497,3.044l-0.998-5.201l-0.748,3.837l-0.624,3.869l-1.123-2.727
		l-1.248-2.727l-0.623,2.727c-0.378,1.496-1.188-1.063-1.747-5.676l-0.998-8.372l-0.624,11.542
		c-0.912,17.385-3.009,20.471-3.742,5.454c-0.366-7.495-1.001-11.027-1.621-8.847l-1.123,3.647l-1.496-4.439
		c-0.842-2.432-2.253-4.408-3.118-4.408c-0.866,0-1.696,5.668-1.871,12.589c-0.175,6.921-0.631,11.586-0.999,10.401
		c-0.549-1.773-1.258-2.125-4.115-2.125c-3.137,0-3.532-0.358-3.742-3.742l-0.249-3.742l-1.372,3.171
		c-0.812,1.746-2.319,3.98-3.243,4.979l-1.622,1.808l-0.499-2.727l-0.5-2.695l-1.122,2.695c-1.075,2.475-1.278,2.288-1.871-2.251
		l-0.624-4.979l-1.122,4.979c-0.507,2.343-0.807,3.546-0.998,3.742c-0.148-0.045-0.354-0.838-0.499-2.283
		c-0.276-2.782-0.876-3.488-2.993-3.488c-2.253,0-2.693-1.181-2.993-7.389l-0.374-7.356l-1.123,5.2
		c-0.908,4.416-1.06,4.78-1.621,2.283l-0.749-2.949l-1.122,2.949c-0.838,2.118-1.314,0.514-1.747-5.676
		c-0.584-8.432-0.721-8.313-1.996,5.359c-0.713,7.683-1.625,14.081-2.12,14.207c-0.496,0.125-1.458-2.191-2.12-5.137
		c-0.66-2.946-1.373-5.56-1.622-5.803c-0.249-0.244-2.202,1.7-4.241,4.313l-3.613,4.757L672.028,645
		c-0.21-1.871-1.028-4.721-1.746-6.342c-1.056-2.394-1.403-1.542-1.871,4.535l-0.624,7.484l-1.247-4.757
		c-0.694-2.619-1.458-5.987-1.747-7.483c-0.472-2.48-0.592-2.574-1.496-0.92c-0.796,1.455-1.15,1.063-1.996-2.029
		c-1.014-3.715-1.072-3.618-1.618,2.283c-0.378,4.082-1.122,5.593-1.996,4.535c-0.779-0.938-1.5,2.295-1.874,7.928l-0.621,9.513
		l-0.997-10.433c-0.857-8.999-1.072-9.621-1.622-4.535c-0.709,6.534-1.293,6.397-2.993-0.792c-1.247-5.271-3.702-6.453-4.739-2.251
		c-0.354,1.434-1.017-3.425-1.372-10.782c-0.542-11.138-0.85-12.458-1.875-7.928c-0.674,2.993-1.523,9.212-1.871,13.826
		l-0.624,8.404l-0.998-8.182c-0.487-3.936-0.776-5.929-0.998-6.311c-0.167,0.2-0.358,1.35-0.62,3.361l-0.748,5.232l-1.248-5.898
		c-0.705-3.242-1.387-8.716-1.496-12.145l-0.25-6.215h-1.996l0,0l-0.873,13.255c-0.433,7.294-1.512,14.583-2.494,16.204
		c-0.983,1.621-2.089,4.18-2.37,5.676c-0.28,1.496-0.745-0.447-1.123-4.313l-0.749-7.04l-0.997,4.788l-0.999,4.757l-1.372-4.313
		c-0.745-2.369-1.894-6.159-2.619-8.403l-1.372-4.059l-0.873,4.756c-0.581-0.684-1.162-1.329-1.746-1.902v38.592
		c0.425-0.416,0.814-0.742,1.248-1.173c0.682,0.173,1.742,3.63,2.369,7.675l1.123,7.355l0.624-7.705
		c0.32-4.238,0.995-6.993,1.497-6.12l0.873,1.585l1.248-1.585c1.146-1.469,1.231-1.389,1.746,0.919
		c0.553,2.487,0.607,2.473,1.746-0.919c0.701-2.096,1.434,1.992,1.871,10.654l0.748,14.048l0.998-8.848
		c0.562-4.92,1.158-6.963,1.372-4.629c0.226,2.429,1.087,4.186,2.121,4.186c0.982,0,2.019,1.068,2.245,2.378
		c0.284-0.793,0.931-5.964,1.372-13.033l0.998-15.411l0.375,19.852l0.374,19.818h1.746l0.25-15.283h0.125
		c0.152-9.153,0.686-14.303,1.496-12.813c0.748,1.372,1.552,4.612,1.747,7.23c0.195,2.619,1.001,5.891,1.746,7.262
		c1.083,1.991,1.368,1.156,1.746-4.091c0.261-3.616,1.061-9.511,1.747-13.128l1.247-6.596l0.749,5.896l0.624,5.898l1.122-5.898
		c0.823-4.588,1.189-2.807,1.622,7.96c0.709,17.634,2.962,23.336,3.617,9.069c0.257-5.611,1.002-9.821,1.622-9.323
		c0.62,0.499,1.567-0.828,2.121-2.949c0.74-2.834,1.216-1.271,1.746,5.897c0.604,8.16,0.784,8.771,1.248,3.742
		c0.319-3.485,1.239-5.992,2.245-5.992c1.013,0,1.883-2.293,1.996-5.551c0.105-3.055,0.764-6.778,1.496-8.274
		c1.143-2.347,1.458-1.884,1.996,3.393c0.499,4.905,0.764,5.376,1.247,2.38c0.332-2.06,1.337-3.742,2.245-3.742
		c0.905,0,1.801,2.104,2.121,4.66l0.623,4.631l0.625-5.424l0.748-5.453l1.247,3.394c0.694,1.87,1.478,8.606,1.747,14.967
		c0.437,10.437,0.659,11.099,1.996,6.597c2.113-7.127,2.701-7.789,3.367-3.424c0.507,3.322,0.678,3.539,1.497,1.584
		c0.939-2.24,1.048-2.219,2.121,1.143c0.67,2.115,1.301-1.313,1.746-9.069l0.749-12.462l0.998,9.291l0.998,9.291l0.749-12.24
		c0.608-9.492,0.951-10.688,1.372-5.326c0.319,4.09,1.216,6.912,2.245,6.912c0.955,0,1.746-1.104,1.746-2.441
		c0-3.284,1.979-6.627,3.866-6.627c0.845,0,1.497,0.615,1.497,1.363c0,2.406,3.523,1.451,3.741-1.016
		c0.452-5.094,2.72-5.275,4.365-0.35l1.497,4.758l2.12-4.758c1.965-4.565,1.98-4.184,2.619,9.514l0.749,14.302l0.998-14.302
		l0.873-14.27l0.874,12.019c0.694,10.788,0.803,11.394,1.746,5.897l1.123-6.119l0.748,7.262l0.748,7.229l0.999-8.594l0.997-8.625
		l0.624,10.877c0.535,8.785,0.92,10.151,1.996,7.04c0.729-2.12,1.571-6.428,1.871-9.545l0.624-5.646l0.998,6.343
		c0.574,3.491,1.169,5.104,1.372,3.583c0.624-4.7,2.615-9.735,3.742-9.449c0.589,0.148,1.583,5.393,2.12,11.669l0.999,11.416
		l0.499-15.633c0.569-18.446,3.243-22.728,3.991-6.343l0.5,11.099l0.998-7.705c0.421-3.181,1.013-5.302,1.372-5.581
		c0.066,0.034,0.199,0.157,0.25,0.381c0.448,2.006,0.846,2.243,1.995,1.331c0.784-0.622,1.524-2.136,1.622-3.36
		c0.242-3.021,1.891-2.377,3.617,1.396l1.372,3.106l0.624-3.393c0.491-2.783,0.761-2.283,1.622,2.727
		c0.99,5.775,1.181,5.512,1.871-4.756c0.655-9.803,0.744-10.32,1.621-5.011c0.534,3.241,1.516,5.38,2.116,4.757
		c1.037-1.072,1.146-1.061,1.376-0.096c0.132,0.563,0.888,1.016,1.746,1.016c0.854,0,2.288,1.068,3.114,2.379l1.497,2.377
		l0.998-3.393l1.123-3.394l0.623,3.394c0.592,3.087,0.779,3.176,1.373,1.016c0.362-1.311,1.317-2.379,2.244-2.379
		c0.932,0,1.832-1.588,1.996-3.521l0.374-3.521l1.123,2.728l1.247,2.728l0.249-2.601c0.168-1.435,1.068-2.601,1.996-2.601
		c0.932,0,2.011-1.069,2.37-2.379c0.362-1.311,0.974,3.614,1.376,10.973l0.749,13.382l0.997-11.099l0.999-11.131l0.748,11.131
		c0.39,5.675,0.624,8.324,0.873,8.656c0.187-0.283,0.511-1.643,0.874-3.9l0.998-6.342l0.998,4.756l0.874,4.758l0.624-6.342
		c0.331-3.492,1.188-9.42,1.871-13.161c1.11-6.104,1.243-5.296,1.87,7.928c0.632,13.353,0.85,14.008,1.747,6.817l0.998-7.928
		l0.873,5.424l0.873,5.453l0.624-6.119c0.355-3.898,1.088-5.732,1.996-5.011c0.959,0.761,1.633-0.421,1.996-3.614l0.499-4.758
		l0.623,3.742c0.332,2.057,1.302,3.741,2.245,3.741c0.94,0,1.747-0.615,1.747-1.364c0-0.748,0.764-1.363,1.747-1.363
		c0.978,0,1.87,0.615,1.87,1.363s0.683,1.364,1.622,1.364c0.935,0,2.031-1.49,2.37-3.298c0.055-0.294,0.183-0.432,0.25-0.477
		c0.331,0.375,0.822,3.182,1.122,7.389c0.554,7.783,0.92,9.136,1.622,5.677l0.873-4.535l0.998,6.12l1.122,6.12l0.749-8.847
		l0.624-8.849l1.122,7.263l0.999,7.262l0.374-9.418c0.233-5.906,0.997-9.387,2.12-9.387c1.106,0,1.905,2.699,1.995,7.135
		c0.156,8.008,2.296,7.939,4.49-0.127c1.009-3.717,1.715-4.575,2.619-3.394c1.049,1.375,1.166,1.244,1.372-1.015
		c0.129-1.434,0.955-2.602,1.871-2.602s2.085-0.582,2.494-1.269s0.85,3.379,0.999,9.038c0.164,6.295,0.904,10.42,1.995,10.592
		c1.154,0.182,1.871-1.848,1.871-5.74c0-6.479,2.888-7.744,3.992-1.744c0.343,1.871,0.974-0.396,1.372-5.01l0.624-8.371l0.998,6.119
		l0.998,6.12l1.497-4.187c1.251-3.565,1.771-4.115,3.866-3.582c1.552,0.394,2.732,1.973,3.119,4.217
		c0.089,0.535,0.152,0.826,0.25,0.92c0.253-0.148,0.646-1.745,0.873-4.63c0.616-7.845,3.067-7.845,3.741,0
		c0.48,5.612,3.037,4.229,3.742-2.029l0.499-4.313l1.248,6.121c0.697,3.365,1.535,9.196,1.87,12.938
		c0.242,2.729,0.468,4.303,0.624,4.566c0.203-0.433,0.507-2.976,0.998-7.992l0.998-10.178l0.749,15.633l0.873,15.634l0.873-16.774
		l0.998-16.775l0.624,14.523l0.748,14.492l1.497-8.118c0.799-4.466,1.801-8.319,2.245-8.594c0.421,0.162,1.009,2.233,1.247,4.946
		l0.499,5.423l0.998-4.091c0.502-1.939,0.857-2.932,1.122-3.14c0.214,0.063,0.503,0.591,0.874,1.554
		c0.522,1.371,1.259-1.771,1.621-7.008c0.499-7.226,1.014-8.65,1.871-5.897l1.122,3.614l0.5-3.614
		c0.663-4.472,3.04-2.81,3.866,2.727c0.222,1.503,0.362,2.281,0.499,2.442c0.105-0.115,0.331-0.559,0.499-1.332
		c0.948-4.355,2.615-7.23,4.116-7.23c0.799,0,2.276,1.166,3.243,2.602l1.747,2.602l0.249-3.742c0.133-2.153,0.966-3.742,1.996-3.742
		c1.017,0,1.926,1.606,2.121,3.742c0.14,1.558,0.226,2.369,0.374,2.537c0.128-0.063,0.405-0.515,0.624-1.396
		c0.354-1.436,1.364-2.602,2.245-2.602c0.88,0,1.883-1.068,2.245-2.377c0.358-1.312,0.826,5.039,1.122,14.143l0.499,16.554
		l2.495-5.424c2.946-6.526,3.773-7.231,4.49-3.646c0.296,1.496,1.083-2.877,1.622-9.735l0.998-12.464l0.624,13.352
		c0.722,14.32,2.857,14.069,3.742-0.443c0.249-4.144,0.467-6.019,0.748-6.151c0.207,0.168,0.581,1.095,0.998,2.632
		c1.431,5.311,3.493,6.346,3.493,1.713c0-1.828,0.635-3.168,1.372-2.98c0.733,0.188,1.82,4.451,2.37,9.48
		c0.347,3.194,0.561,5.112,0.749,5.486c0.246-0.439,0.554-4.262,0.873-12.432l0.624-16.108l1.248,9.672
		c1.25,9.455,3.188,13.074,3.866,7.294c0.113-0.965,0.25-1.533,0.375-1.681c0.202,0.102,0.604,1.052,1.123,3.075l0.998,4.313
		l0.748-4.757l0.625-4.757l1.118,3.394c1.079,3.209,1.236,3.058,1.875-2.506l0.619-5.897l0.998,5.011
		c0.987,4.979,0.967,4.964,2.744,2.474c1.563-2.186,1.914-1.43,2.745,6.12l0.997,8.625l0.624-12.24
		c0.604-12.313,2.806-14.53,3.867-3.868c0.417,4.18,0.67,4.834,1.123,2.409c0.339-1.807,1.435-3.298,2.37-3.298
		c0.939,0,1.622,0.391,1.622,0.889c0,0.5,0.818,0.92,1.746,0.92c0.932,0,2.011-1.068,2.37-2.379c0.522-1.886,0.78-1.595,1.248,1.459
		l0.624,3.868l1.247-2.727c0.733-1.497,1.54-4.25,1.746-6.12l0.374-3.395l2.37,2.729c1.329,1.496,2.607,5.578,2.744,9.068
		c0.14,3.492,1.263,9.712,2.495,13.826l2.245,7.483l0.499-13.159c0.266-7.232,0.94-16.82,1.622-21.311
		c1.037-6.803,1.383-4.604,1.996,13.16l0.749,21.31l0.997-19.06l0.874-19.025l0.749,16.775c0.409,9.228,1.278,15.253,1.871,13.382
		c1.072-3.36,1.06-3.384,1.996-1.142c0.101,0.239,0.269,0.34,0.374,0.349c0.439-0.259,0.97-2.243,1.247-5.327
		c0.28-3.118,0.782-5.122,1.123-5.232c0.051,0.059,0.082,0.187,0.125,0.35c1.277,4.645,4.038,2.334,4.364-3.646
		c0.32-5.759,0.426-5.851,1.497-2.156c0.616,2.121,1.317,3.222,1.496,2.41c0.184-0.812,1.144-1.49,2.121-1.49
		c0.983,0,1.84-1.068,1.996-2.379c0.195-1.631,0.507-1.93,0.998-0.92c0.421,0.858,1.816,1.49,3.243,1.49
		c1.426,0,2.701-0.631,3.118-1.49c0.016-0.028,0.108-0.047,0.125-0.063c0.374,0.413,0.893,4.583,1.122,10.146
		c0.265,6.36,0.975,12.773,1.621,14.271c1.118,2.582,1.267,2.443,2.494-2.506c0.713-2.867,1.436-7.338,1.622-9.957l0.375-4.758
		l1.122,4.061c0.611,2.244,1.337,3.572,1.622,2.949l0.499-1.11l1.373,1.11c1.063,0.845,1.593,0.339,1.995-2.03
		c0.43-2.526,0.775-2.008,1.622,2.506c0.946,5.054,1.109,4.491,1.622-5.011c0.588-10.98,2.774-16.721,3.74-9.734l0.499,3.614
		l1.248-2.474c1.044-2.163,1.313-2.297,1.87-0.92c0.066,0.164,0.157,0.25,0.25,0.254c0.401-0.188,1.052-1.59,1.496-3.646
		c0.807-3.73,1.213-1.638,1.747,8.372c0.557,10.479,0.912,12.222,1.746,7.959l1.123-5.454l0.748,4.534
		c0.731,4.533,0.709,4.519,1.746-2.282l0.998-6.785l0.749,7.705l0.748,7.705l0.998-9.957c0.811-8.131,1.177-8.893,1.497-3.996
		c0.471,7.235,3.761,8.297,4.239,1.365l0.25-4.631l1.247,3.393l1.122,3.396l0.25-2.634c0.198-1.622,1.021-2.52,2.12-2.346
		c1.13,0.178,1.871-1.016,1.871-3.235c0-1.926,0.37-3.394,0.873-3.267c0.503,0.129,1.527,1.738,2.37,3.584
		c1.501,3.289,1.645,3.326,1.871,0.92c0.514-5.455,2-1.278,4.614,12.462c1.517,7.965,3.018,14.784,3.367,15.157
		c0.351,0.375,1.034-7.271,1.373-16.996l0.624-17.664l0.873,15.412c0.531,8.479,1.318,13.469,1.747,11.1
		c0.319-1.771,0.553-2.803,0.748-2.949c0.242,0.288,0.604,1.958,1.123,5.232c0.888,5.603,1.103,4.494,1.746-7.484
		c0.756-13.994,0.741-14.031,1.746-5.454l1.122,8.625l0.5-9.956c0.615-10.373,3.219-11.295,3.865-1.363
		c0.18,2.744,0.917,6.404,1.622,8.148c1.2,2.969,1.297,2.797,1.747-2.505c0.265-3.118,1.157-7.588,1.87-9.957l1.248-4.313
		l0.624,4.758c0.276,1.99,0.444,3.107,0.624,3.267c0.226-0.278,0.607-2.009,1.123-5.518l0.998-7.04l0.624,8.372l0.624,8.403
		l3.119-7.263l3.118-7.262l0.499,5.01c0.572,4.884,0.659,4.899,1.248,1.236c0.436-2.718,1.281-3.741,2.993-3.741
		c1.418,0,3.027-0.939,4.114-2.379c1.489-1.969,1.855-0.707,2.245,7.357c0.27,5.631,0.986,9.098,1.746,8.182
		c0.994-1.203,1.521-0.622,1.871,2.473c0.429,3.85,0.515,3.986,2.12,2.063c0.936-1.122,2.271-5.723,2.994-10.211l1.372-8.149
		l0.499,7.706c0.706,10.107,3.32,7.288,3.991-4.313c0.362-6.287,0.569-7.123,0.998-3.299c0.319,2.885,1.393,5.105,2.37,5.105
		c0.948,0,1.622-0.42,1.622-0.919s0.889-0.89,1.871-0.89c1.11,0,1.874,3.201,2.12,8.5l0.374,8.498l0.998-9.957l0.998-9.989
		l0.749,9.514c0.319,3.995,0.725,6.099,0.998,6.342c0.125-0.112,0.257-0.618,0.374-1.554c0.318-2.607,1.359-4.871,2.245-5.01
		c0.88-0.139,2.338-2.786,3.243-5.898l1.617-5.676l0.624,5.01l0.624,4.979l0.998-6.119l1.122-6.12l0.748,4.757l0.749,4.757
		l0.998-5.897l0.998-5.898l0.375,5.803c0.223,3.49,1.169,5.771,2.245,5.771c0.982,0,1.852-1.068,1.995-2.378l0.25-2.38l1.372,2.729
		c0.732,1.496,1.583,4.25,1.871,6.12l0.499,3.394l1.123-3.869l1.126-3.836l0.499,3.836l0.619,3.869l2.245-4.756
		c1.909-4.203,2.179-4.486,2.618-2.283c0.644,3.196,1.54,1.972,3.368-4.535c1.197-4.252,1.543-2.141,1.996,11.353
		c0.405,12.009,0.962,15.193,1.875,11.575c0.687-2.743,1.465-5.917,1.747-7.04c0.167-0.678,0.335-1.079,0.498-1.174
		c0.254,0.092,0.645,0.821,1.247,2.315c0.701,1.746,1.646,5.405,1.996,8.148c0.043,0.343,0.068,0.563,0.124,0.666
		c0.374-0.486,0.963-5.186,1.373-12.24l0.997-16.553l0.623,15.441l0.624,15.412l2.494-8.625c2.821-10.221,3.87-12.463,6.107-12.463
		c0.923,0,1.796-1.068,1.995-2.379c0.203-1.309,0.92,0.377,1.496,3.742l0.998,6.12l0.624-7.483c0.476-5.408,1.005-6.781,1.87-4.979
		l1.248,2.475l0.623-2.475l0.623-2.506l0.874,2.506l0.997,2.475l1.123-3.173c0.39-1.116,0.671-1.791,0.873-1.934
		c0.265,0.161,0.521,1.474,0.873,4.217c0.697,5.437,0.732,5.429,1.746-2.728c0.936-7.504,1.017-6.912,1.745,7.263l0.877,15.411
		l0.873-16.109l0.998-16.077l0.374,14.904c0.227,8.209,0.808,14.856,1.247,14.745c2.038-0.518,5.027-7.232,6.236-14.016l1.371-7.484
		l0.625,7.484l0.619,7.482l1.122-8.625l0.998-8.625l0.624,9.545l0.623,9.514l1.995-7.041c1.574-5.801,2.098-6.593,2.993-4.533
		l0.997,2.504l0.749-2.504c0.366-1.373,1.052,0.668,1.621,4.533c1.014,6.889,1.123,6.801,1.871-4.756l0.748-11.797l0.998,9.545
		c0.554,5.237,1.31,7.895,1.621,5.898c0.8-5.096,3.263-6.913,3.492-2.537c0.272,5.199,3.53,3.363,5.113-2.917l1.371-5.454
		l0.998,3.646l0.998,3.614l0.498-3.394c0.277-1.871,1.05-3.911,1.747-4.534c1.224-1.097,1.305-1.065,2.494,0.412
		c0.678,0.841,1.422,2.882,1.621,4.534c0.063,0.522,0.262,0.777,0.375,0.824c0.271-0.203,0.725-1.51,1.122-3.742l0.997-5.897
		l0.749,7.263l0.748,7.262l0.998-6.12c0.998-5.806,1.075-5.907,1.745-2.251l0.748,3.836l1.123-4.313
		c0.877-3.434,1.225-2.232,1.745,5.897c0.453,7.047,0.952,9.233,1.747,7.04c0.798-2.197,1.446-0.12,1.871,6.786l0.498,9.989
		l1.372-14.873c0.694-8.178,1.754-15.002,2.37-15.156c0.615-0.157,1.286,3.882,1.496,8.974l0.374,9.261l0.874-8.403l0.997-8.372
		l1.371,6.977c0.736,3.844,1.467,8.734,1.621,10.877c0.188,2.541,1.006,0.598,2.37-5.611c1.411-6.424,2.257-8.416,2.619-6.12
		c0.646,4.059,1.38,3.284,3.367-3.394l1.497-5.011l0.499,3.646c0.271,1.994,0.931,3.098,1.497,2.475
		c0.768-0.842,1.422-0.488,2.243,1.363c0.943,2.119,1.169,1.798,1.621-2.252c0.297-2.619,0.823-4.303,1.248-3.741
		c0.426,0.561,1.582,1.015,2.494,1.015s1.742,0.68,1.87,1.49l0.25,1.459l1.122-1.586c0.659-0.873,1.953,3.648,2.744,10.053
		c2.155,17.416,4.072,16.828,4.74-1.428l0.623-16.108l0.996,12.938l0.999,12.906l0.748-11.797l0.748-11.765l0.998,10.179
		c0.654,7.08,1.341,9.674,2.369,8.437c1.802-2.171,4.575-10.872,5.114-16.142l0.374-3.838l1.122,4.979
		c0.8,3.698,1.271,4.354,1.746,2.506c0.562-2.185,0.735-1.966,1.871,1.808c0.713,2.369,1.388,6.807,1.496,9.861
		c0.12,3.368,0.917,5.55,1.995,5.55c1.11,0,2-3.2,2.245-8.498l0.374-8.499l0.997,10.655c0.702,7.534,1.187,9.203,1.622,5.676
		c0.339-2.743,1.189-8.671,1.871-13.159l1.247-8.182l0.624,7.262l0.748,7.262l0.997-6.119c0.709-4.137,1.295-5.231,1.747-3.395
		l0.623,2.729l1.246-2.729c0.477-1.094,0.791-1.728,0.998-1.839c0.21,0.171,0.374,1.183,0.623,3.202
		c0.765,6.262,3.021,13.168,3.368,10.307c0.25-2.055,0.787-2.379,3.866-2.379c3.219,0,3.616-0.291,3.616-3.106
		c0-1.714,0.512-3.82,1.248-4.661c1.277-1.463,1.367-1.434,2.37,0.951c0.187,0.441,0.471,0.71,0.623,0.793
		c0.37-0.15,0.764-1.561,0.997-4.408c0.483-5.882,2.874-6.605,3.367-1.016c0.285,3.205,3.435,3.041,4.24-0.221
		c0.354-1.437,1.033,2.387,1.372,8.497c0.366,6.606,1.018,10.195,1.747,8.849c0.717-1.33,1.332,1.796,1.496,7.578l0.374,9.861h1.621
		h1.871c-1.158,0-1.625-5.453-1.497-15.538c0.108-8.542,0.782-17.45,1.497-19.819c0.151-0.508,0.237-0.739,0.374-0.666
		c0.589,0.324,0.975,6.047,1.121,16.205c0.188,12.972-0.331,19.818-1.495,19.818h3.616l0.374-12.367
		c0.323-10.816,0.463-11.504,1.372-5.549l0.997,6.816l0.748-7.482c0.633-6.693,0.87-7.096,1.871-3.646l1.123,3.869l0.624-3.869
		l0.623-3.838l1.123,2.949l1.247,2.949l0.498-2.283c0.297-1.247,1.063-4.615,1.747-7.482l1.245-5.201l0.621,4.313
		c0.293,2.369,1.045,5.737,1.745,7.483l1.248,3.171l0.498-4.534c0.263-2.493,1.025-6.381,1.747-8.626l1.375-4.09l0.249,3.52
		c0.16,1.994,1.107,3.521,2.117,3.521c1.127,0,1.746,3.127,1.746,8.467c0,4.656,0.639,8.306,1.375,8.118
		c0.733-0.188,1.7-4.549,2.245-9.703l0.999-9.387l0.37,8.752c0.218,5.458,1.005,8.721,2.119,8.721c1.122,0,2.004-3.654,2.244-9.861
		l0.374-9.862l0.998,8.372c0.604,4.982,1.333,7.117,1.747,5.232l0.623-3.172l1.122,3.172c0.909,2.491,1.329,1.473,1.871-4.758
		l0.748-7.928l0.998,7.008l0.998,7.04l0.748-9.767c0.553-7.594,1.002-8.868,1.871-5.866c0.614,2.118,1.341,3.124,1.621,2.251
		c0.479-1.488,0.534-1.508,1.87-0.444c0.787,0.624,1.613,5.095,1.871,9.958c0.433,8.076,0.576,8.453,1.746,4.313
		c0.705-2.493,1.582-6.381,1.87-8.625l0.499-4.06l1.122,3.394l1.248,3.394l0.623-3.837l0.624-3.869l1.123,3.869l1.122,3.837
		l0.623-5.897l0.749-5.897l1.122,5.01l0.998,4.979l0.373-4.885c0.29-3.989,0.804-4.852,2.994-4.852c2.038,0,2.813,0.611,2.993,2.602
		c0.233,2.554,0.172,2.516,1.621-0.983c0.814-1.965,1.94-3.665,2.369-3.772c0.426-0.108,1.235,2.026,1.871,4.726
		c1.637,6.942,2.19,7.705,2.494,3.424c0.152-2.146,1.1-3.741,2.12-3.741c0.981,0,1.731,0.68,1.747,1.49
		c0.02,1.118,0.433,1.309,1.745,0.793c1.146-0.451,1.852,2.816,1.995,9.734c0.116,5.736,0.775,12.279,1.498,14.523
		c0.922,2.872,1.512-0.848,1.993-12.494l0.749-16.553l0.873,12.018l0.998,12.02l0.873-14.27l0.748-14.303l0.998,10.908
		c0.547,5.984,1.329,9.549,1.746,7.928c0.631-2.46,0.928-2.035,1.746,2.506c0.943,5.252,1.021,5.047,2.744-5.677l1.746-11.13
		l0.997,5.896c0.562,3.391,1.277,4.859,1.62,3.426c0.566-2.35,0.637-2.414,1.871-0.92c1.218,1.47,1.364,1.391,1.746-0.92
		c0.328-1.979,0.737-2.264,1.871-1.362l1.372,1.142l0.374-1.142l0.375-1.11l1.371,1.11c1.134,0.899,1.544,0.647,1.871-1.332
		c0.382-2.312,0.529-2.392,1.746-0.92l1.246,1.586l0.25-1.554c0.129-0.854,0.885-1.394,1.621-1.205
		c0.736,0.187,1.815,5.066,2.37,10.845l0.997,10.496l0.748-15.634l0.748-15.633l0.874,15.633c0.896,14.529,1.095,14.976,1.746,6.343
		c0.358-4.741,0.593-6.957,0.873-7.229c0.21,0.168,0.483,1.185,0.873,2.918c1.442,6.394,5.284,8.604,5.362,3.075
		c0.082-5.495,3.629-4.737,4.115,0.888c0.228,2.558,0.839-1.266,1.373-8.498l0.998-13.128l0.623,9.513l0.623,9.514l2.245-4.979
		l2.119-4.979l0.625,11.099l0.623,11.1l0.998-9.514c0.989-9.407,1.011-9.44,1.745-3.394l0.748,6.12l1.124-5.232
		c0.515-2.504,0.812-3.771,0.997-3.963c0.145,0.064,0.227,0.932,0.375,2.506c0.517,5.433,3.843,4.707,4.24-0.92
		c0.249-3.49,0.563-4.029,1.246-2.156l0.998,2.505l1.121-2.505l1.124-2.475l0.374,2.949c0.215,1.621,1.061,3.76,1.87,4.757
		c1.106,1.36,1.677,0.175,2.12-4.757l0.498-6.596l1.124,8.847l0.998,8.849l0.623-7.041c0.349-3.865,0.947-6.554,1.371-5.992
		c1.688,2.229,4.116,0.834,4.116-2.379c0-2.721,0.479-3.394,2.619-3.394c2.189,0,2.705,0.861,2.992,4.853l0.374,4.884l0.998-4.979
		l0.999-5.01l1.371,3.868c0.729,2.12,1.518,7.528,1.746,12.019c0.324,6.356,0.615,5.002,1.371-6.119l0.999-14.303l0.624,14.303
		c0.393,7.855,1.267,12.94,1.87,11.319c1.165-3.146,2.498-2.942,4.864,0.698c1.021,1.574,1.75-1.748,2.369-10.877
		c0.954-14.09,3.383-15.118,3.74-1.586l0.125,7.928l2.371-4.313c1.313-2.369,2.623-4.508,2.867-4.758
		c0.301,0.241,0.976,2.021,1.498,4.313l1.122,4.757l0.748-6.12c0.62-5.662,0.689-5.872,1.745-2.728l1.123,3.394l0.5-2.948
		c0.291-1.621,1.152-4.277,1.869-5.897l1.371-2.948l0.375,2.505c0.797,4.41,3.311,5.177,3.741,1.142
		c0.679-6.32,2.979-1.645,3.618,7.263l0.623,8.149l0.997-7.041l1.122-7.008l0.748,10.655c0.578,8.483,0.831,9.688,1.623,5.897
		c0.545-2.625,1.517-4.271,2.119-3.646c0.601,0.623,1.354-2.324,1.623-6.564c0.265-4.239,0.941-10.166,1.621-13.16
		c1.035-4.59,1.414-3.389,1.993,7.705c0.624,11.968,0.804,12.519,1.748,6.121c0.782-5.328,1.091-6.193,1.615-3.614l0.748,3.393
		l1.124-3.393l1.122-3.394l0.748,2.473c0.434,1.56,1.092,0.212,1.746-3.614c0.932-5.427,1.071-4.731,1.747,6.12l0.748,12.24
		l0.996-9.957l0.998-9.989l0.873,14.271l0.75,14.303l0.998-17.695c0.463-8.59,0.778-12.719,0.996-13.255
		c0.152,0.452,0.302,2.596,0.5,6.216c0.636,11.434,3.078,16.436,3.99,8.182l0.499-4.757l0.997,4.757
		c0.803,3.868,1.302,4.422,2.371,2.948c0.725-0.997,1.363-3.174,1.374-4.819c0.013-1.646,0.47-4.599,1.119-6.563
		c1.177-3.535,1.278-3.56,3.493-1.998c1.234,0.869,2.295,2.558,2.373,3.742c0.094,1.528,0.842,2.155,2.615,2.155
		c3.358,0,6.325-2.336,6.609-5.168c0.223-2.183,0.386-2.227,1.62-0.729c1.062,1.278,1.33,0.933,1.623-1.808
		c0.202-1.871,1.086-4.332,1.87-5.455c0.857-1.221,1.604,5.257,1.87,16.109c0.27,10.854,1.018,17.299,1.872,16.077
		c0.787-1.122,1.551-4.069,1.744-6.563c0.195-2.494,0.92-5.959,1.621-7.705l1.249-3.172l0.748,3.838
		c0.421,2.416,0.992,0.324,1.62-5.646l0.998-9.545l0.623,7.959c0.319,4.364,1.15,9.772,1.872,12.019l1.247,4.06l0.498-5.897
		c0.429-6.356,4.28-12.765,5.862-9.734c0.479,0.91,1.044-0.071,1.373-2.283c0.313-2.12,0.978-3.189,1.374-2.379
		c0.434,0.895,1.688,1.49,3.244,1.49c1.99,0,2.609-0.832,2.869-3.741c0.239-2.774,0.51-3.13,0.996-1.364
		c0.358,1.311,1.438,2.379,2.369,2.379c0.928,0,1.813,0.68,1.995,1.49c0.185,0.811,0.882-0.259,1.498-2.378
		c0.779-2.685,1.354-0.155,1.87,8.371l0.623,12.239l0.999-13.381l0.998-13.383l0.748,14.303c0.634,11.726,1.036,13.139,1.875,7.928
		l0.997-6.344l0.873,6.344c0.863,6.135,0.966,6.029,1.496-3.395c0.719-12.809,3.074-17.124,3.865-7.039
		c0.336,4.323,0.934,6.242,1.497,4.756c0.929-2.445,0.952-2.416,1.996,1.364l1.122,3.868l0.499-5.232
		c0.363-3.334,1.002-4.63,1.745-3.613l1.124,1.584l1.496-2.028c4.021-5.812,4.233-5.862,4.864-0.92
		c0.524,4.146,0.736,3.71,1.621-3.394l0.996-8.182l0.75,10.908c0.626,9.294,0.854,10.1,1.745,5.645l0.998-5.199l0.997,5.199
		l0.873,5.232l0.374-5.105c0.207-2.805,1.077-5.104,1.996-5.104c0.917,0,1.972,0.681,2.369,1.49
		c0.395,0.812,1.021-1.294,1.373-4.661l0.624-6.12l1.122,4.757c0.597,2.619,1.301,4.305,1.495,3.741
		c0.191-0.562,1.139-1.015,2.116-1.015c0.982,0,1.884-1.166,1.995-2.601c0.176-2.146,0.379-2.388,1.498-1.269
		c1.169,1.166,1.521,1.027,1.875-1.11l0.369-2.505l2.121,2.505c1.969,2.239,2.304,2.332,3.117,1.11
		c0.482,0.35,0.896,0.645,1.373,0.982V646.66c-0.457,1.305-0.913,2.57-1.373,3.932c-0.026-0.025-0.094-0.058-0.125-0.127
		c-0.572-1.371-1.887-2.505-2.867-2.505c-0.979,0-2.293,1.134-2.869,2.505l-0.998,2.505l-0.623-2.505l-0.499-2.505l-1.248,2.505
		l-1.247,2.505l-0.249-2.378c-0.159-1.309-1.076-2.378-1.995-2.378c-0.917,0-1.974-0.68-2.371-1.49
		c-0.393-0.811-0.941,0.777-1.246,3.52c-0.283,2.613-0.562,3.781-0.873,3.869c-0.229-0.101-0.534-0.667-0.998-1.617
		c-0.729-1.497-1.389-4.088-1.496-5.771c-0.104-1.683-0.951-3.044-1.87-3.044c-0.92,0-1.972-0.68-2.369-1.49
		c-0.524-1.07-0.956-0.796-1.373,1.015l-0.499,2.505l-1.247-2.505c-0.854-1.77-1.426-0.24-1.87,5.232
		c-0.558,6.832-0.675,7.232-1.622,3.615l-1.123-4.091l-0.872,3.646l-0.873,3.615l-0.623-4.757c-0.297-2.618-1.146-5.275-1.871-5.898
		c-1.131-0.97-1.527-0.771-3.117,1.363c-1.633,2.195-1.953,1.485-2.495-5.898c-0.588-8.02-0.688-7.815-1.621,4.756l-0.997,13.16
		l-0.374-10.433c-0.233-5.736-0.891-11.178-1.498-12.114c-1.241-1.91-4.241-2.313-4.241-0.571c0,0.706-0.953,1.11-2.617,1.11
		c-2.291,0-2.791,1.575-3.118,11.005c-0.206,6.047-0.558,8.801-0.873,6.119c-0.319-2.732-1.402-4.851-2.369-4.851
		c-0.947,0-1.747,0.486-1.747,1.11s-0.764,1.142-1.745,1.142s-1.926-1.166-2.12-2.6c-0.218-1.615-0.826-0.711-1.498,2.378
		l-0.997,4.979l-0.623-4.979c-0.593-4.54-0.792-4.76-1.87-2.283l-1.248,2.727l-0.5-3.615l-0.623-3.646l-1.246,2.505
		c-0.933,1.937-1.371,1.062-1.87-3.869l-0.624-6.342l-0.998,5.01l-1.123,4.979l-0.623-6.12c-0.573-5.4-0.92-4.516-2.744,7.483
		l-2.12,13.604l-0.371-14.081c-0.226-7.731-1.06-14.858-1.873-15.855l-1.498-1.807l-0.369,2.251
		c-0.229,1.247-0.997,2.898-1.747,3.646c-1.227,1.223-1.529,1.119-1.994-0.919l-0.5-2.251l-1.121,2.949
		c-1.084,2.727-1.17,2.54-1.747-2.283l-0.623-5.201l-1.247,6.786c-0.684,3.741-1.543,10.575-1.87,15.189l-0.623,8.403l-1-6.12
		c-0.798-4.887-1.219-5.597-1.994-3.425l-0.873,2.727l-0.374-3.52c-0.188-1.933-1.08-3.488-1.997-3.488
		c-0.919,0-1.976-0.68-2.368-1.49c-0.396-0.811-0.975,0.679-1.246,3.298c-0.277,2.618-1.125,5.372-1.873,6.12l-1.375,1.364
		l-0.25-1.649c-0.111-0.901-0.76-2.618-1.496-3.837l-1.371-2.22l-0.997,2.695c-0.769,2.013-1.15,1.234-1.374-3.044
		c-0.179-3.501-1.039-5.771-2.119-5.771c-0.979,0-1.746,0.389-1.746,0.888s-0.764,0.919-1.746,0.919
		c-1.095,0-1.994,2.744-2.244,7.135c-0.332,5.905-0.559,5.087-1.371-4.663l-1-11.765l-0.748,10.876l-0.748,10.878l-0.998-9.99
		l-0.996-9.958l-0.748,7.484c-0.651,6.713-0.865,7.074-1.872,3.615c-0.915-3.162-1.228-2.311-1.745,4.756l-0.624,8.625l-1.496-7.484
		c-0.835-4.114-2.194-11.046-2.994-15.411l-1.496-7.928l-0.623,10.655l-0.625,10.655l-0.998-9.386
		c-0.556-5.154-1.633-9.517-2.368-9.704c-0.732-0.187-1.528,3.916-1.746,9.133l-0.375,9.482l-0.997-10.433
		c-0.546-5.736-1.153-9.057-1.371-7.389c-0.216,1.669-1.138,3.175-2.122,3.33c-1.021,0.161-1.87,2.5-1.87,5.486
		c0,6.014-3.495,12.643-5.487,10.369l-1.121-1.363l-0.25,1.269c-0.133,0.782-1.188,1.236-2.869,1.236
		c-1.853,0-2.797,0.534-2.992,1.712c-0.28,1.697-0.698,0.806-4.116-7.706c-0.774-1.934-2.155-3.521-2.994-3.521
		c-0.833,0-1.675-0.453-1.87-1.015c-0.19-0.561-0.775,1.124-1.371,3.742c-0.976,4.286-1.182,3.928-1.498-3.521
		c-0.218-5.155-1.009-8.277-2.119-8.277c-0.979,0-1.854,0.649-1.87,1.459c-0.021,1.119-0.434,1.309-1.747,0.792
		c-1.344-0.528-1.758-0.358-1.994,0.698c-0.211,0.927-0.663,0.625-1.497-0.919l-1.248-2.251l-0.623,1.807
		c-0.471,1.441-0.829,1.159-1.746-1.363c-0.737-2.026-1.332,1.174-1.747,8.847c-0.412,7.724-1.086,10.627-1.744,8.15l-0.998-3.837
		l-1.371,2.949c-0.737,1.622-1.562,3.857-1.872,4.979c-0.308,1.123-0.826-0.206-1.122-2.949c-0.533-4.922-0.51-4.951-2.244-2.378
		c-0.968,1.434-2.366,2.6-3.119,2.6s-2.021-2.202-2.867-4.883c-1.35-4.276-1.665-4.565-2.371-2.378l-0.871,2.505l-1.123-2.505
		c-0.972-2.106-1.271-1.708-1.747,2.505c-0.291,2.592-0.595,3.773-0.872,3.9c-0.228-0.153-0.525-0.802-0.998-1.871
		c-0.717-1.621-1.557-4.277-1.87-5.898c-0.41-2.114-0.866-1.278-1.622,2.949l-0.998,5.898l-0.374-4.883
		c-0.213-2.886-1.063-4.852-2.119-4.852c-0.983,0-1.864-1.167-1.997-2.6c-0.229-2.55-0.291-2.55-1.744,0.951
		c-2.102,5.065-3.1,5.205-3.617,0.507l-0.374-4.091l-1.123,2.949c-0.833,2.267-1.341,2.631-2.121,1.585
		c-0.556-0.748-1.203,0.807-1.496,3.425c-0.498,4.516-0.607,4.61-1.87,2.03c-0.729-1.497-1.672-5.286-1.995-8.403
		c-0.515-5.005-0.612-4.54-1.497,3.869l-0.998,9.513l-0.748-7.484l-0.749-7.484l-1.122,5.898l-0.996,5.898l-0.75-9.292l-0.748-9.291
		l-0.998,7.483l-1.121,7.484l-0.624-8.403c-0.584-7.512-0.804-7.985-1.995-4.535c-0.729,2.121-1.547,8.566-1.871,14.302
		l-0.624,10.401l-0.997-14.27l-0.874-14.27l-0.498,12.811c-0.223,7.046-1.018,12.811-1.871,12.811c-1.776,0-3.672-2.478-4.116-5.454
		c-0.248-1.674-0.403-1.779-0.996-0.571c-0.577,1.184-1.557,1.491-4.864,1.491c-3.582,0-4.275-0.339-5.612-2.41
		c-1.479-2.293-1.634-2.176-2.62,2.41l-0.997,4.757l-0.624-6.12c-0.314-3.367-1.063-9.197-1.745-12.938l-1.248-6.786l-0.618,9.291
		c-0.507,7.92-0.741,8.706-1.875,5.423c-0.729-2.121-1.622-6.299-1.871-9.292l-0.374-5.422l-1.372,3.837
		c-0.729,2.12-1.563,6.719-1.87,10.211l-0.499,6.342l-1.123-7.928c-0.993-7.759-0.942-7.657-1.622,5.2l-0.748,13.16l-1.118-8.245
		c-0.597-4.538-1.538-8.415-2.245-8.594c-0.709-0.18-1.457,2.943-1.621,6.913l-0.373,7.198l-0.998-5.518
		c-1.209-6.214-3.742-8.052-3.742-2.727c0,4.043-3.336,4.84-3.741,0.888c-0.265-2.555-0.565-2.355-2.619,2.474
		c-2.011,4.719-4.364,2.336-4.364-4.471c0-3.783-0.328-6.767-0.873-6.628c-0.55,0.139-1.72,3.789-2.494,8.118l-1.372,7.864
		l-0.499-7.262c-0.28-3.991-0.985-6.518-1.621-5.645l-1.247,1.585l-1.248-2.22c-0.705-1.22-1.375-3.066-1.496-4.091l-0.249-1.871
		l-1.373,2.061c-0.787,1.122-1.551,4.427-1.62,7.357c-0.083,3.227-0.792,5.327-1.871,5.327c-0.982,0-1.93-1.166-2.12-2.6
		c-0.219-1.615-0.83-0.711-1.498,2.378l-0.996,4.979l-0.623-7.262c-0.34-4.191-1.058-6.561-1.747-5.645
		c-0.919,1.213-1.695,0.34-3.117-3.647l-1.871-5.201l-0.624,3.837l-0.623,3.869l-1.123-4.757l-0.997-4.756l-0.748,4.979
		l-0.625,4.979l-1.122-4.091c-0.201-0.749-0.463-1.189-0.623-1.332c-0.382,0.207-0.783,2.637-0.998,7.706
		c-0.692,16.481-3.285,16.154-3.865-0.476c-0.413-11.825-0.709-13.436-1.746-8.816c-0.697,3.117-2.021,8.008-2.869,10.877
		c-1.462,4.922-1.516,5.041-2.494,2.474l-1.122-2.695l-0.25,2.6c-0.405,3.539-3.328,3.296-4.239-0.349
		c-1.115-4.449-5.014-4.945-5.238-0.666c-0.331,6.278-2.963,1.482-3.367-6.12c-0.238-4.419-0.917-6.727-1.746-5.898
		c-0.963,0.963-1.575,0.041-1.996-3.171c-0.479-3.651-0.807-2.917-1.622,3.837l-0.997,8.403l-0.748-12.019
		c-0.736-11.642-0.744-11.82-1.745-5.01l-0.998,7.04l-0.374-7.293c-0.207-4.019-0.998-8.262-1.621-9.418l-1.123-2.093h-1.247
		l-0.374,15.063l-0.499,15.095l-0.873-12.716l-0.998-12.684l-1.372,9.957c-2.081,15.087-3.441,20.644-5.113,20.644
		c-0.834,0-1.496-1.523-1.496-3.393c0-5.278-3.479-4.164-3.866,1.237c-0.185,2.563-0.636,3.596-0.997,2.283
		c-0.358-1.309-1.442-2.378-2.37-2.378c-0.933,0-1.738-1.101-1.871-2.41c-0.133-1.309-0.572-1.893-0.997-1.332
		c-1.419,1.871-4.155,1.046-4.49-1.364l-0.374-2.378l-0.624,2.378c-0.357,1.309-1.368,2.378-2.245,2.378
		c-0.876,0-1.887-1.069-2.244-2.378c-0.521-1.899-0.757-1.617-1.247,1.459c-0.339,2.12-0.976,3.189-1.372,2.378
		c-0.397-0.811-1.38-1.459-2.245-1.459c-0.868,0-1.887-1.069-2.245-2.378c-0.429-1.557-0.88-0.809-1.246,2.157
		c-1.408,11.332-3.087,11.203-3.742-0.254c-0.636-11.089-0.752-11.279-1.745-4.757c-0.784,5.136-1.183,6.043-1.746,3.647
		c-0.538-2.268-1.01-1.125-1.746,4.059l-0.998,7.262l-0.872-7.262l-0.749-7.23l-0.998,9.735l-0.997,9.735l-0.624-12.24
		c-0.362-6.869-1.153-11.451-1.87-10.433c-0.948,1.345-1.527,0.474-1.996-3.393l-0.623-5.2l-0.874,7.483l-0.997,7.484l-1.746-8.403
		l-1.871-8.372l-0.872,16.997l-0.998,16.997l-0.749-13.826c-0.562-10.072-1.021-12.423-1.745-8.625
		c-0.628,3.274-1.346,4.644-1.996,3.647c-0.701-1.073-1.271-0.355-1.621,2.251c-0.409,3.012-0.721,3.524-1.746,2.283
		c-0.938-1.134-1.47-0.169-1.871,3.393c-0.331,2.898-0.868,3.983-1.246,2.6c-0.469-1.698-1.403-2.378-3.243-2.378
		c-1.56,0-2.693-0.484-2.868-1.236c-0.16-0.686-0.838-0.135-1.496,1.236l-1.248,2.505l-0.374-2.061
		c-0.218-1.122-1.062-2.839-1.871-3.837c-1.461-1.793-1.418-1.787-1.621,0.793c-0.113,1.434-0.92,2.6-1.746,2.6
		c-0.825,0-1.999-3.727-2.619-8.276c-0.682-4.988-1.891-8.341-2.992-8.435c-1.007-0.085-1.871-0.558-1.871-1.078
		s-0.562-0.809-1.247-0.634c-0.687,0.175-1.754,5.476-2.369,11.765l-0.998,11.416l-0.624-12.685
		c-0.584-14.699-2.717-22.032-3.617-12.24c-0.378,4.117-0.873,5.199-1.621,3.615c-0.911-1.919-1.294-1.436-2.619,3.171
		c-0.86,2.993-2.206,8.921-2.867,13.16c-0.577,3.683-0.905,5.442-1.123,5.613c-0.134-0.209-0.266-1.184-0.374-2.791
		c-0.272-3.993-0.804-4.852-2.993-4.852c-2.013,0-2.709,0.589-2.869,2.378c-0.179,2.036-0.459,2.178-1.621,1.015l-1.372-1.363
		l-0.374,1.363l-0.374,1.365l-1.372-1.365c-1.182-1.179-1.411-1.02-1.871,1.142c-0.447,2.108-0.76,1.801-1.871-1.839
		c-2.114-6.937-4.813-12.364-6.733-13.826c-1.415-1.074-1.853-0.167-2.12,4.313c-0.188,3.118-0.9,7.491-1.622,9.736
		c-1.192,3.709-1.297,3.36-1.745-4.059c-0.581-9.616-3.052-8.722-3.742,1.364l-0.499,6.786l-1.37-4.693
		c-0.78-2.583-1.781-4.797-2.245-4.915c-0.469-0.119-1.361,1.182-1.996,2.886c-1.999,5.356-2.378,4.742-2.993-6.184l-0.499-10.655
		l-0.998,10.655c-0.545,5.86-1.274,8.516-1.496,5.898c-1.115-13.147-3.878-19.554-6.112-13.857
		c-0.403,1.031-0.949,0.316-1.122-1.681c-0.171-1.99-0.985-3.52-1.994-3.52c-1.146,0-2,5.307-2.245,14.841
		c-0.319,12.494-0.512,13.62-1.372,7.135c-0.775-5.846-1.192-6.81-1.746-4.059l-0.748,3.615l-0.998-4.979l-1.122-4.979l-0.748,4.979
		l-0.624,4.979l-1.123-3.615l-1.123-3.647l-0.623,4.789l-0.748,4.757l-1.123-4.757l-0.997-4.789l-0.748,3.647l-0.749,3.615
		l-0.624-3.521c-0.467-2.705-1.114-3.488-3.117-3.488c-1.93,0-2.618-0.598-2.618-2.283c0-1.247-0.765-2.251-1.747-2.251
		c-1.1,0-1.955,2.65-2.12,6.913c-0.37,9.804-2.688,4.356-3.367-7.833c-0.347-6.274-0.923-8.193-1.621-5.898
		c-0.367,1.212-0.644,1.964-0.873,2.093c-0.339-0.115-0.675-1.648-1.372-5.042c-0.718-3.491-2.021-7.573-2.868-9.069
		c-1.415-2.501-1.578-2.249-2.12,3.171c-0.554,5.544-0.671,5.695-1.622,2.283c-0.851-3.058-1.243-2.284-2.37,4.979
		c-0.732,4.739-1.431,10.764-1.621,13.382l-0.375,4.756l-1.123-4.091l-1.118-4.059l-0.5,4.535c-1.103,9.4-3.153,10.425-3.617,1.807
		c-0.265-4.891-1.017-7.718-1.871-7.04l-1.496,1.142l-0.129-1.11c-0.098-0.603-0.706-0.961-1.373-0.793
		c-0.661,0.168-2.197,3.85-3.366,8.15l-2.12,7.801l-0.624-5.898"/>
	<path id="path24_1_" fill="#FFFFFF" d="M1357.589,662.714l-0.749-22.81c-0.562-16.616-1.021-20.495-1.745-14.23
		c-0.628,5.403-1.345,7.66-1.996,6.016c-0.701-1.77-1.271-0.586-1.621,3.715c-0.409,4.969-0.721,5.812-1.746,3.767
		c-0.938-1.871-1.47-0.282-1.871,5.597c-0.327,4.783-0.868,6.572-1.247,4.29c-0.468-2.803-1.398-3.923-3.242-3.923
		c-1.56,0-2.693-0.8-2.868-2.041c-0.16-1.131-0.838-0.223-1.496,2.041l-1.248,4.132l-0.374-3.4
		c-0.218-1.851-1.062-4.685-1.871-6.331c-1.461-2.96-1.418-2.947-1.621,1.308c-0.113,2.366-0.92,4.29-1.746,4.29
		s-1.999-6.149-2.619-13.654c-0.682-8.23-1.891-13.762-2.993-13.915c-1.006-0.141-1.87-0.922-1.87-1.779s-0.562-1.334-1.247-1.047
		c-0.688,0.288-1.754,9.033-2.37,19.409l-0.997,18.833l-0.624-20.926c-0.584-24.25-2.716-36.348-3.617-20.194
		c-0.378,6.791-0.873,8.576-1.621,5.964c-0.907-3.167-1.294-2.369-2.619,5.231c-0.86,4.937-2.201,14.716-2.867,21.71
		c-0.577,6.077-0.905,8.978-1.123,9.26c-0.134-0.346-0.266-1.953-0.374-4.603c-0.27-6.588-0.804-8.005-2.993-8.005
		c-2.013,0-2.709,0.971-2.868,3.924c-0.181,3.356-0.456,3.592-1.622,1.674l-1.371-2.25l-0.375,2.25l-0.374,2.25l-1.372-2.25
		c-1.182-1.945-1.411-1.684-1.871,1.884c-0.447,3.477-0.76,2.97-1.871-3.034c-2.114-11.446-4.809-20.399-6.733-22.809
		c-1.415-1.774-1.853-0.274-2.12,7.114c-0.188,5.143-0.9,12.358-1.622,16.061c-1.192,6.121-1.297,5.545-1.745-6.696
		c-0.581-15.863-3.052-14.389-3.742,2.25l-0.499,11.196l-1.37-7.744c-0.78-4.259-1.777-7.913-2.245-8.108
		c-0.469-0.196-1.36,1.951-1.996,4.761c-1.999,8.837-2.374,7.822-2.993-10.202l-0.499-17.578l-0.25,4.395v53.728l0.25-3.559
		l0.624,15.747l0.623,15.694l1.996-11.614c1.569-9.569,2.097-10.876,2.993-7.479l0.997,4.133l0.749-4.133
		c0.365-2.265,1.052,1.104,1.62,7.479c1.015,11.365,1.119,11.217,1.871-7.847l0.748-19.461l0.998,15.746
		c0.551,8.641,1.311,13.021,1.621,9.729c0.8-8.405,3.263-11.405,3.493-4.185c0.272,8.58,3.53,5.548,5.113-4.813l1.371-8.998
		l0.998,6.017l0.998,5.965l0.499-5.598c0.275-3.086,1.049-6.453,1.746-7.481c1.224-1.806,1.306-1.757,2.493,0.681
		c0.675,1.389,1.419,4.756,1.621,7.48c0.063,0.863,0.263,1.283,0.375,1.361c0.272-0.336,0.722-2.49,1.122-6.175l0.997-9.729
		l0.749,11.979l0.748,11.98l0.998-10.098c0.534-5.146,0.881-7.533,1.123-7.742c0.163,0.35,0.37,1.768,0.619,4.027l0.748,6.33
		l1.123-7.113c0.877-5.664,1.224-3.685,1.745,9.729c0.457,11.624,0.952,15.229,1.747,11.614c0.799-3.627,1.449-0.199,1.871,11.195
		l0.498,16.479l1.377-24.535c0.688-13.491,1.753-24.749,2.367-25.006c0.613-0.259,1.283,6.404,1.497,14.805l0.374,15.275
		l0.873-13.863l0.998-13.813l1.372,11.511c0.733,6.34,1.462,14.409,1.621,17.944c0.188,4.19,1.006,0.984,2.37-9.26
		c1.411-10.598,2.253-13.883,2.619-10.098c0.643,6.695,1.376,5.421,3.367-5.6l1.496-8.266l0.499,6.018
		c0.27,3.291,0.928,5.109,1.497,4.08c0.765-1.389,1.418-0.805,2.244,2.25c0.943,3.498,1.166,2.966,1.621-3.715
		c0.293-4.319,0.823-7.1,1.248-6.174s1.578,1.674,2.494,1.674c0.912,0,1.738,1.123,1.87,2.459l0.25,2.406l1.123-2.615
		c0.658-1.439,1.948,6.021,2.743,16.584c2.155,28.731,4.071,27.763,4.739-2.354l0.623-26.575l0.997,21.344l0.999,21.293
		l0.748-19.463l0.748-19.406l0.998,16.793c0.65,11.678,1.34,15.959,2.37,13.914c1.796-3.578,4.571-17.935,5.113-26.629l0.37-6.328
		l1.122,8.213c0.804,6.101,1.271,7.183,1.746,4.133c0.562-3.604,0.735-3.241,1.87,2.982c0.714,3.907,1.389,11.229,1.496,16.27
		c0.121,5.555,0.917,9.154,1.996,9.154c1.114,0,2-5.278,2.245-14.021l0.374-14.021l0.997,17.578
		c0.441,7.769,0.814,11.763,1.123,12.24c0.145-0.184,0.37-1.145,0.499-2.877c0.343-4.525,1.188-14.306,1.871-21.711l1.247-13.497
		l0.623,11.98l0.749,11.979l0.997-10.096c0.71-6.824,1.299-8.631,1.746-5.599l0.623,4.498l1.248-4.498
		c0.476-1.805,0.796-2.85,0.997-3.034c0.214,0.282,0.378,1.95,0.623,5.284c0.769,10.326,3.021,21.723,3.367,17.002
		c0.251-3.389,0.792-3.924,3.867-3.924c3.223,0,3.616-0.482,3.616-5.127c0-2.828,0.516-6.303,1.248-7.689
		c1.277-2.412,1.37-2.361,2.369,1.568c0.188,0.729,0.472,1.174,0.623,1.309c0.37-0.246,0.765-2.572,0.998-7.271
		c0.483-9.703,2.873-10.898,3.367-1.675c0.285,5.288,3.438,5.019,4.24-0.366c0.354-2.365,1.033,3.94,1.372,14.021
		c0.37,10.898,1.021,16.818,1.747,14.595c0.717-2.192,1.332,2.963,1.496,12.504l0.374,16.271h1.745h1.746
		c-1.156,0-1.625-8.996-1.497-25.635c0.113-14.092,0.787-28.789,1.497-32.696c0.156-0.841,0.242-1.222,0.374-1.099
		c0.589,0.533,0.976,9.977,1.122,26.731c0.191,21.401-0.331,32.696-1.496,32.696h3.617l0.374-20.402
		c0.327-17.845,0.464-18.979,1.372-9.154l0.997,11.248l0.748-12.347c0.633-11.044,0.87-11.705,1.871-6.017l1.123,6.383l0.624-6.383
		l0.623-6.33l1.122,4.865l1.248,4.864l0.498-3.767c0.297-2.059,1.063-7.615,1.746-12.346l1.247-8.58l0.624,7.113
		c0.292,3.909,1.04,9.467,1.745,12.348l1.248,5.23l0.498-7.48c0.259-4.114,1.025-10.526,1.747-14.229l1.371-6.749l0.249,5.808
		c0.16,3.287,1.11,5.807,2.121,5.807c1.127,0,1.746,5.158,1.746,13.969c0,7.68,0.635,13.7,1.37,13.393
		c0.737-0.308,1.7-7.504,2.246-16.009l0.997-15.483l0.375,14.438c0.214,9.005,1.005,14.387,2.12,14.387
		c1.122,0,2.003-6.028,2.244-16.27l0.374-16.271l0.998,13.813c0.601,8.222,1.329,11.743,1.747,8.631l0.623-5.23l1.122,5.23
		c0.905,4.112,1.33,2.434,1.871-7.847l0.748-13.079l0.998,11.563l0.998,11.613l0.748-16.113c0.55-12.524,0.998-14.629,1.87-9.678
		c0.615,3.497,1.342,5.154,1.621,3.715c0.477-2.455,0.53-2.486,1.871-0.732c0.783,1.029,1.609,8.404,1.87,16.428
		c0.429,13.323,0.577,13.945,1.747,7.114c0.701-4.114,1.578-10.526,1.87-14.229l0.499-6.695l1.122,5.598l1.248,5.598l0.623-6.33
		l0.624-6.382l1.123,6.382l1.122,6.33l0.623-9.729l0.749-9.729l1.117,8.266l0.998,8.214l0.375-8.058
		c0.289-6.584,0.807-8.004,2.992-8.004c2.043,0,2.814,1.01,2.994,4.289c0.233,4.213,0.172,4.151,1.62-1.621
		c0.819-3.242,1.945-6.047,2.37-6.226c0.43-0.181,1.236,3.344,1.871,7.795c1.637,11.453,2.189,12.713,2.494,5.649
		c0.156-3.541,1.1-6.174,2.121-6.174c0.98,0,1.733,1.123,1.744,2.459c0.024,1.846,0.438,2.159,1.746,1.309
		c1.15-0.744,1.855,4.646,1.996,16.061c0.121,9.463,0.775,20.258,1.497,23.961c0.923,4.737,1.517-1.397,1.995-20.611l0.749-27.31
		l0.872,19.827l0.998,19.827l0.877-23.541l0.748-23.594l0.998,17.995c0.542,9.875,1.329,15.752,1.746,13.078
		c0.627-4.059,0.927-3.359,1.746,4.133c0.942,8.666,1.021,8.328,2.744-9.362l1.746-18.362l0.996,9.729
		c0.559,5.591,1.274,8.016,1.618,5.649c0.565-3.873,0.636-3.981,1.874-1.517c1.217,2.425,1.361,2.294,1.747-1.519
		c0.323-3.267,0.736-3.732,1.87-2.248l1.372,1.883l0.374-1.883l0.375-1.832l1.371,1.832c1.13,1.483,1.544,1.067,1.871-2.198
		c0.382-3.812,0.525-3.942,1.746-1.519l1.246,2.616l0.25-2.563c0.129-1.404,0.885-2.295,1.621-1.986
		c0.732,0.309,1.815,8.359,2.37,17.893l0.997,17.314l0.748-25.791l0.748-25.791l0.874,25.791
		c0.893,23.968,1.095,24.704,1.746,10.463c0.354-7.82,0.589-11.477,0.873-11.928c0.21,0.275,0.479,1.954,0.873,4.813
		c1.442,10.549,5.28,14.194,5.362,5.075c0.078-9.067,3.625-7.813,4.115,1.466c0.224,4.217,0.834-2.09,1.372-14.021l0.998-21.658
		l0.623,15.693l0.624,15.695l2.245-8.214l2.119-8.213l0.625,18.31l0.624,18.311l0.997-15.693
		c0.739-11.642,0.881-14.609,1.247-11.144v-60.686l-1.122,4.866c-0.834,3.738-1.341,4.34-2.122,2.616
		c-0.557-1.235-1.203,1.33-1.496,5.649c-0.502,7.45-0.609,7.605-1.87,3.349c-0.729-2.469-1.672-8.721-1.995-13.864
		c-0.194-3.097-0.358-4.941-0.499-5.284c-0.211,0.405-0.515,4.067-0.998,11.667l-0.998,15.694l-0.748-12.346l-0.749-12.347
		l-1.121,9.731l-0.998,9.73l-0.748-15.328l-0.748-15.328l-0.997,12.346l-1.123,12.347l-0.624-13.864
		c-0.584-12.393-0.803-13.175-1.995-7.48c-0.729,3.497-1.547,14.13-1.871,23.594l-0.624,17.158l-0.997-23.541l-0.874-23.542
		l-0.498,21.135c-0.223,11.623-1.018,21.134-1.87,21.134c-1.778,0-3.673-4.09-4.116-8.998c-0.25-2.761-0.404-2.936-0.998-0.941
		c-0.576,1.953-1.556,2.459-4.863,2.459c-3.582,0-4.275-0.558-5.612-3.976c-1.478-3.782-1.633-3.59-2.62,3.976l-0.997,7.847
		l-0.624-10.097c-0.314-5.555-1.063-15.173-1.746-21.345l-1.246-11.195l-0.625,15.328c-0.502,13.066-0.735,14.363-1.869,8.946
		c-0.729-3.498-1.621-10.392-1.871-15.329l-0.374-8.945l-1.372,6.331c-0.729,3.497-1.563,11.084-1.87,16.845l-0.5,10.462
		l-1.122-13.079c-0.993-12.799-0.941-12.631-1.621,8.58l-0.748,21.71l-1.123-13.602c-0.593-7.486-1.535-13.879-2.245-14.177
		c-0.704-0.297-1.458,4.855-1.62,11.404l-0.375,11.876l-0.998-9.103c-1.207-10.251-3.74-13.282-3.74-4.499
		c0,6.671-3.338,7.985-3.742,1.464c-0.261-4.214-0.563-3.884-2.619,4.081c-2.007,7.785-4.365,3.856-4.365-7.377
		c0-6.24-0.326-11.162-0.873-10.933c-0.545,0.229-1.719,6.25-2.494,13.393l-1.371,12.974l-0.5-11.98
		c-0.275-6.583-0.98-10.752-1.62-9.312l-1.247,2.615l-1.248-3.662c-0.705-2.012-1.371-5.057-1.496-6.749l-0.249-3.087l-1.373,3.401
		c-0.782,1.851-1.546,7.303-1.621,12.136c-0.078,5.325-0.791,8.789-1.87,8.789c-0.982,0-1.926-1.923-2.12-4.29
		c-0.219-2.664-0.825-1.172-1.497,3.924l-0.998,8.213l-0.623-11.98c-0.339-6.913-1.053-10.824-1.746-9.312
		c-0.916,2.001-1.691,0.561-3.117-6.016l-1.871-8.58l-0.624,6.33l-0.623,6.382l-1.123-7.847l-0.997-7.847l-0.748,8.213l-0.621,8.213
		l-1.122-6.749c-0.206-1.235-0.467-1.961-0.623-2.197c-0.387,0.343-0.788,4.352-0.998,12.712
		c-0.696,27.189-3.284,26.649-3.866-0.784c-0.412-19.509-0.713-22.164-1.745-14.544c-0.701,5.143-2.021,13.212-2.869,17.944
		c-1.462,8.121-1.517,8.317-2.494,4.081l-1.122-4.447l-0.25,4.29c-0.409,5.838-3.328,5.438-4.24-0.575
		c-1.115-7.338-5.017-8.156-5.238-1.099c-0.33,10.357-2.961,2.445-3.366-10.097c-0.238-7.289-0.92-11.097-1.746-9.73
		c-0.968,1.59-1.575,0.066-1.996-5.231c-0.483-6.022-0.807-4.811-1.622,6.33l-0.997,13.864l-0.748-19.828
		c-0.736-19.206-0.749-19.5-1.746-8.266l-0.998,11.614l-0.374-12.032c-0.207-6.628-0.998-13.628-1.62-15.537l-1.123-3.453h-1.247
		l0,0l-0.374,24.85l-0.499,24.902l-0.873-20.978l-0.998-20.926l-1.372,16.427c-2.08,24.89-3.441,34.057-5.113,34.057
		c-0.834,0-1.496-2.512-1.496-5.598c0-8.708-3.479-6.869-3.867,2.041c-0.183,4.23-0.635,5.934-0.996,3.767
		c-0.358-2.16-1.438-3.923-2.37-3.923c-0.929,0-1.738-1.817-1.871-3.976c-0.133-2.16-0.572-3.124-0.997-2.198
		c-1.419,3.088-4.155,1.727-4.49-2.25l-0.374-3.923l-0.624,3.923c-0.357,2.16-1.364,3.924-2.245,3.924
		c-0.876,0-1.883-1.764-2.245-3.924c-0.521-3.133-0.756-2.667-1.245,2.407c-0.341,3.498-0.977,5.26-1.373,3.923
		c-0.395-1.337-1.375-2.406-2.245-2.406c-0.868,0-1.884-1.764-2.245-3.924c-0.429-2.568-0.876-1.333-1.246,3.558
		c-1.407,18.695-3.087,18.482-3.742-0.418c-0.636-18.293-0.752-18.608-1.746-7.847c-0.784,8.473-1.181,9.97-1.746,6.016
		c-0.533-3.741-1.009-1.854-1.745,6.696l-0.998,11.981l-0.872-11.981l-0.749-11.927l-0.998,16.061l-0.997,16.061l-0.624-20.193
		c-0.362-11.331-1.153-18.89-1.87-17.211c-0.948,2.219-1.528,0.781-1.996-5.598l-0.623-8.58l-0.874,12.346l-0.997,12.347
		l-1.747-13.864l-1.871-13.811l-0.871,28.042"/>
</g>
</svg>
